<mxfile host="app.diagrams.net" modified="2023-08-21T20:20:58.898Z" agent="Mozilla/5.0 (Windows NT 10.0; Win64; x64) AppleWebKit/537.36 (KHTML, like Gecko) Chrome/115.0.0.0 Safari/537.36" etag="tTIQsww7zkWB7Z5yNtHi" version="21.6.8" type="github">
  <diagram name="Page-1" id="21DJCv4iAgsj__p_spN6">
    <mxGraphModel dx="520" dy="462" grid="1" gridSize="10" guides="1" tooltips="1" connect="1" arrows="1" fold="1" page="1" pageScale="1" pageWidth="850" pageHeight="1100" math="0" shadow="0">
      <root>
        <mxCell id="0" />
        <mxCell id="1" parent="0" />
        <mxCell id="ly5PmHkvwo5zEQeQArB4-1" value="Start" style="ellipse;whiteSpace=wrap;html=1;" vertex="1" parent="1">
          <mxGeometry x="200" y="50" width="120" height="80" as="geometry" />
        </mxCell>
        <mxCell id="ly5PmHkvwo5zEQeQArB4-2" value="" style="endArrow=classic;html=1;rounded=0;exitX=0.444;exitY=1.038;exitDx=0;exitDy=0;exitPerimeter=0;entryX=0.5;entryY=0;entryDx=0;entryDy=0;" edge="1" parent="1" source="ly5PmHkvwo5zEQeQArB4-1" target="ly5PmHkvwo5zEQeQArB4-3">
          <mxGeometry width="50" height="50" relative="1" as="geometry">
            <mxPoint x="250" y="270" as="sourcePoint" />
            <mxPoint x="253" y="200" as="targetPoint" />
          </mxGeometry>
        </mxCell>
        <mxCell id="ly5PmHkvwo5zEQeQArB4-3" value="Read X ,&amp;nbsp; Y , Z" style="shape=parallelogram;perimeter=parallelogramPerimeter;whiteSpace=wrap;html=1;fixedSize=1;" vertex="1" parent="1">
          <mxGeometry x="190" y="170" width="120" height="60" as="geometry" />
        </mxCell>
        <mxCell id="ly5PmHkvwo5zEQeQArB4-5" value="" style="endArrow=classic;html=1;rounded=0;exitX=0.4;exitY=1.061;exitDx=0;exitDy=0;exitPerimeter=0;" edge="1" parent="1" source="ly5PmHkvwo5zEQeQArB4-3" target="ly5PmHkvwo5zEQeQArB4-6">
          <mxGeometry width="50" height="50" relative="1" as="geometry">
            <mxPoint x="230" y="330" as="sourcePoint" />
            <mxPoint x="238" y="290" as="targetPoint" />
          </mxGeometry>
        </mxCell>
        <mxCell id="ly5PmHkvwo5zEQeQArB4-6" value="A = X&lt;br&gt;B = Y&lt;br&gt;C = z" style="whiteSpace=wrap;html=1;aspect=fixed;" vertex="1" parent="1">
          <mxGeometry x="180" y="270" width="110" height="110" as="geometry" />
        </mxCell>
        <mxCell id="ly5PmHkvwo5zEQeQArB4-7" value="" style="endArrow=classic;html=1;rounded=0;exitX=0.5;exitY=1;exitDx=0;exitDy=0;entryX=0.5;entryY=0;entryDx=0;entryDy=0;" edge="1" parent="1" source="ly5PmHkvwo5zEQeQArB4-6" target="ly5PmHkvwo5zEQeQArB4-8">
          <mxGeometry width="50" height="50" relative="1" as="geometry">
            <mxPoint x="250" y="270" as="sourcePoint" />
            <mxPoint x="235" y="440" as="targetPoint" />
          </mxGeometry>
        </mxCell>
        <mxCell id="ly5PmHkvwo5zEQeQArB4-8" value="A &amp;gt; B" style="rhombus;whiteSpace=wrap;html=1;" vertex="1" parent="1">
          <mxGeometry x="187.5" y="420" width="95" height="100" as="geometry" />
        </mxCell>
        <mxCell id="ly5PmHkvwo5zEQeQArB4-9" value="" style="endArrow=classic;html=1;rounded=0;exitX=0.5;exitY=1;exitDx=0;exitDy=0;entryX=0.5;entryY=0;entryDx=0;entryDy=0;" edge="1" parent="1" source="ly5PmHkvwo5zEQeQArB4-8" target="ly5PmHkvwo5zEQeQArB4-10">
          <mxGeometry width="50" height="50" relative="1" as="geometry">
            <mxPoint x="250" y="530" as="sourcePoint" />
            <mxPoint x="235" y="570" as="targetPoint" />
          </mxGeometry>
        </mxCell>
        <mxCell id="ly5PmHkvwo5zEQeQArB4-10" value="B &amp;gt; C" style="rhombus;whiteSpace=wrap;html=1;" vertex="1" parent="1">
          <mxGeometry x="190" y="560" width="85" height="110" as="geometry" />
        </mxCell>
        <mxCell id="ly5PmHkvwo5zEQeQArB4-11" value="" style="endArrow=classic;html=1;rounded=0;exitX=0.5;exitY=1;exitDx=0;exitDy=0;entryX=0.5;entryY=0;entryDx=0;entryDy=0;" edge="1" parent="1" source="ly5PmHkvwo5zEQeQArB4-10" target="ly5PmHkvwo5zEQeQArB4-12">
          <mxGeometry width="50" height="50" relative="1" as="geometry">
            <mxPoint x="250" y="530" as="sourcePoint" />
            <mxPoint x="233" y="720" as="targetPoint" />
          </mxGeometry>
        </mxCell>
        <mxCell id="ly5PmHkvwo5zEQeQArB4-12" value="A &amp;gt; B" style="rhombus;whiteSpace=wrap;html=1;" vertex="1" parent="1">
          <mxGeometry x="192.5" y="700" width="80" height="100" as="geometry" />
        </mxCell>
        <mxCell id="ly5PmHkvwo5zEQeQArB4-13" value="" style="endArrow=classic;html=1;rounded=0;exitX=0.5;exitY=1;exitDx=0;exitDy=0;entryX=0.5;entryY=0;entryDx=0;entryDy=0;" edge="1" parent="1" source="ly5PmHkvwo5zEQeQArB4-12" target="ly5PmHkvwo5zEQeQArB4-14">
          <mxGeometry width="50" height="50" relative="1" as="geometry">
            <mxPoint x="250" y="610" as="sourcePoint" />
            <mxPoint x="230" y="850" as="targetPoint" />
          </mxGeometry>
        </mxCell>
        <mxCell id="ly5PmHkvwo5zEQeQArB4-14" value="Print A, B , C" style="rounded=0;whiteSpace=wrap;html=1;" vertex="1" parent="1">
          <mxGeometry x="172.5" y="840" width="120" height="60" as="geometry" />
        </mxCell>
        <mxCell id="ly5PmHkvwo5zEQeQArB4-15" value="" style="endArrow=classic;html=1;rounded=0;exitX=0.5;exitY=1;exitDx=0;exitDy=0;entryX=0.5;entryY=0;entryDx=0;entryDy=0;" edge="1" parent="1" source="ly5PmHkvwo5zEQeQArB4-14" target="ly5PmHkvwo5zEQeQArB4-16">
          <mxGeometry width="50" height="50" relative="1" as="geometry">
            <mxPoint x="250" y="820" as="sourcePoint" />
            <mxPoint x="230" y="950" as="targetPoint" />
          </mxGeometry>
        </mxCell>
        <mxCell id="ly5PmHkvwo5zEQeQArB4-16" value="Stop" style="ellipse;whiteSpace=wrap;html=1;" vertex="1" parent="1">
          <mxGeometry x="170" y="960" width="120" height="80" as="geometry" />
        </mxCell>
        <mxCell id="ly5PmHkvwo5zEQeQArB4-17" value="" style="endArrow=classic;html=1;rounded=0;exitX=1;exitY=0.5;exitDx=0;exitDy=0;" edge="1" parent="1" source="ly5PmHkvwo5zEQeQArB4-8" target="ly5PmHkvwo5zEQeQArB4-18">
          <mxGeometry width="50" height="50" relative="1" as="geometry">
            <mxPoint x="250" y="310" as="sourcePoint" />
            <mxPoint x="370" y="520" as="targetPoint" />
            <Array as="points">
              <mxPoint x="370" y="470" />
            </Array>
          </mxGeometry>
        </mxCell>
        <mxCell id="ly5PmHkvwo5zEQeQArB4-18" value="Temp = A&lt;br&gt;A = B&lt;br&gt;B = Temp" style="whiteSpace=wrap;html=1;aspect=fixed;" vertex="1" parent="1">
          <mxGeometry x="330" y="510" width="80" height="80" as="geometry" />
        </mxCell>
        <mxCell id="ly5PmHkvwo5zEQeQArB4-21" value="" style="endArrow=none;html=1;rounded=0;exitX=-0.025;exitY=0.379;exitDx=0;exitDy=0;exitPerimeter=0;entryX=0.971;entryY=0.544;entryDx=0;entryDy=0;entryPerimeter=0;" edge="1" parent="1" source="ly5PmHkvwo5zEQeQArB4-18" target="ly5PmHkvwo5zEQeQArB4-22">
          <mxGeometry width="50" height="50" relative="1" as="geometry">
            <mxPoint x="250" y="500" as="sourcePoint" />
            <mxPoint x="240" y="540" as="targetPoint" />
          </mxGeometry>
        </mxCell>
        <mxCell id="ly5PmHkvwo5zEQeQArB4-22" value="No" style="text;html=1;align=center;verticalAlign=middle;resizable=0;points=[];autosize=1;strokeColor=none;fillColor=none;" vertex="1" parent="1">
          <mxGeometry x="192.5" y="520" width="40" height="30" as="geometry" />
        </mxCell>
        <mxCell id="ly5PmHkvwo5zEQeQArB4-23" value="" style="endArrow=classic;html=1;rounded=0;exitX=1;exitY=0.5;exitDx=0;exitDy=0;" edge="1" parent="1" source="ly5PmHkvwo5zEQeQArB4-10">
          <mxGeometry width="50" height="50" relative="1" as="geometry">
            <mxPoint x="250" y="790" as="sourcePoint" />
            <mxPoint x="350" y="650" as="targetPoint" />
            <Array as="points">
              <mxPoint x="350" y="615" />
            </Array>
          </mxGeometry>
        </mxCell>
        <mxCell id="ly5PmHkvwo5zEQeQArB4-24" value="Temp = B&lt;br&gt;B = C&lt;br&gt;C = Temp" style="whiteSpace=wrap;html=1;aspect=fixed;" vertex="1" parent="1">
          <mxGeometry x="320" y="650" width="80" height="80" as="geometry" />
        </mxCell>
        <mxCell id="ly5PmHkvwo5zEQeQArB4-25" value="" style="endArrow=none;html=1;rounded=0;entryX=0;entryY=0.5;entryDx=0;entryDy=0;" edge="1" parent="1" target="ly5PmHkvwo5zEQeQArB4-24">
          <mxGeometry width="50" height="50" relative="1" as="geometry">
            <mxPoint x="230" y="680" as="sourcePoint" />
            <mxPoint x="310" y="690" as="targetPoint" />
          </mxGeometry>
        </mxCell>
        <mxCell id="ly5PmHkvwo5zEQeQArB4-26" value="NO" style="text;html=1;align=center;verticalAlign=middle;resizable=0;points=[];autosize=1;strokeColor=none;fillColor=none;" vertex="1" parent="1">
          <mxGeometry x="190" y="668" width="40" height="30" as="geometry" />
        </mxCell>
        <mxCell id="ly5PmHkvwo5zEQeQArB4-27" value="" style="endArrow=classic;html=1;rounded=0;exitX=1;exitY=0.5;exitDx=0;exitDy=0;" edge="1" parent="1" source="ly5PmHkvwo5zEQeQArB4-12" target="ly5PmHkvwo5zEQeQArB4-28">
          <mxGeometry width="50" height="50" relative="1" as="geometry">
            <mxPoint x="250" y="790" as="sourcePoint" />
            <mxPoint x="340" y="790" as="targetPoint" />
            <Array as="points">
              <mxPoint x="340" y="750" />
            </Array>
          </mxGeometry>
        </mxCell>
        <mxCell id="ly5PmHkvwo5zEQeQArB4-28" value="&amp;nbsp;Temp = A&lt;br&gt;A = B&lt;br&gt;B = Temp" style="whiteSpace=wrap;html=1;aspect=fixed;" vertex="1" parent="1">
          <mxGeometry x="320" y="770" width="80" height="80" as="geometry" />
        </mxCell>
        <mxCell id="ly5PmHkvwo5zEQeQArB4-29" value="No" style="text;html=1;align=center;verticalAlign=middle;resizable=0;points=[];autosize=1;strokeColor=none;fillColor=none;" vertex="1" parent="1">
          <mxGeometry x="197.5" y="795" width="40" height="30" as="geometry" />
        </mxCell>
      </root>
    </mxGraphModel>
  </diagram>
</mxfile>
